HIERARCHY
ROOT SimulationBone
{
	OFFSET 0.000000 0.000000 0.000000
	CHANNELS 6 Xposition Yposition Zposition Zrotation Yrotation Xrotation 
	JOINT Hips
	{
		OFFSET 0.000000 0.000000 0.000000
		CHANNELS 6 Xposition Yposition Zposition Zrotation Yrotation Xrotation 
		JOINT LeftUpLeg
		{
			OFFSET 0.103455 1.857829 10.548506
			CHANNELS 3 Zrotation Yrotation Xrotation
			JOINT LeftLeg
			{
				OFFSET 43.499996 -0.000034 0.000000
				CHANNELS 3 Zrotation Yrotation Xrotation
				JOINT LeftFoot
				{
					OFFSET 42.372192 0.000015 -0.000006
					CHANNELS 3 Zrotation Yrotation Xrotation
					JOINT LeftToe
					{
						OFFSET 17.299999 -0.000000 -0.000002
						CHANNELS 3 Zrotation Yrotation Xrotation
						End Site
						{
							OFFSET 0.000000 0.000000 0.000000
						}
					}
				}
			}
		}
		JOINT RightUpLeg
		{
			OFFSET 0.103461 1.857828 -10.548504
			CHANNELS 3 Zrotation Yrotation Xrotation
			JOINT RightLeg
			{
				OFFSET 43.500038 -0.000027 0.000010
				CHANNELS 3 Zrotation Yrotation Xrotation
				JOINT RightFoot
				{
					OFFSET 42.372265 -0.000004 0.000015
					CHANNELS 3 Zrotation Yrotation Xrotation
					JOINT RightToe
					{
						OFFSET 17.299992 -0.000005 0.000008
						CHANNELS 3 Zrotation Yrotation Xrotation
						End Site
						{
							OFFSET 0.000000 0.000000 0.000000
						}
					}
				}
			}
		}
		JOINT Spine
		{
			OFFSET 6.901968 -2.603732 0.000000
			CHANNELS 3 Zrotation Yrotation Xrotation
			JOINT Spine1
			{
				OFFSET 12.588099 -0.000001 0.000001
				CHANNELS 3 Zrotation Yrotation Xrotation
				JOINT Spine2
				{
					OFFSET 12.343203 -0.000001 -0.000000
					CHANNELS 3 Zrotation Yrotation Xrotation
					JOINT Neck
					{
						OFFSET 25.832890 -0.000002 0.000001
						CHANNELS 3 Zrotation Yrotation Xrotation
						JOINT Head
						{
							OFFSET 11.766614 0.000006 0.000000
							CHANNELS 3 Zrotation Yrotation Xrotation
							End Site
							{
								OFFSET 0.000000 0.000000 0.000000
							}
						}
					}
					JOINT LeftShoulder
					{
						OFFSET 19.745895 -1.480368 6.000105
						CHANNELS 3 Zrotation Yrotation Xrotation
						JOINT LeftArm
						{
							OFFSET 11.284125 -0.000008 -0.000020
							CHANNELS 3 Zrotation Yrotation Xrotation
							JOINT LeftForeArm
							{
								OFFSET 33.000050 0.000002 0.000037
								CHANNELS 3 Zrotation Yrotation Xrotation
								JOINT LeftHand
								{
									OFFSET 25.200003 0.000015 -0.000001
									CHANNELS 3 Zrotation Yrotation Xrotation
									End Site
									{
										OFFSET 0.000000 0.000000 0.000000
									}
								}
							}
						}
					}
					JOINT RightShoulder
					{
						OFFSET 19.746092 -1.480371 -6.000073
						CHANNELS 3 Zrotation Yrotation Xrotation
						JOINT RightArm
						{
							OFFSET 11.284139 -0.000016 -0.000008
							CHANNELS 3 Zrotation Yrotation Xrotation
							JOINT RightForeArm
							{
								OFFSET 33.000092 0.000014 0.000002
								CHANNELS 3 Zrotation Yrotation Xrotation
								JOINT RightHand
								{
									OFFSET 25.199774 0.000137 0.000428
									CHANNELS 3 Zrotation Yrotation Xrotation
									End Site
									{
										OFFSET 0.000000 0.000000 0.000000
									}
								}
							}
						}
					}
				}
			}
		}
	}
}
MOTION
Frames: 7
Frame Time: 0.016667
-0.128050 0.000000 -45.161334 0.000000 136.138701 0.000000 -1.824762 92.905952 -1.969180 92.154514 -0.346968 -179.656684 -179.207922 -15.746511 162.664616 -36.679990 0.237916 -2.320538 78.129877 -3.862866 -20.896699 21.454550 0.003092 0.000000 170.973432 1.729397 -171.155757 -22.365046 3.445915 16.619240 77.722279 -9.999560 7.360471 21.454558 -0.003104 -0.000018 9.162415 2.221838 -1.402692 8.265984 4.537917 -2.645157 7.947170 4.522009 -2.672540 -3.219642 2.170873 -15.364420 -10.906754 3.812065 -15.839277 176.797985 -77.517601 1.833656 2.444832 58.688863 37.886638 -67.308296 -14.940760 2.377931 9.412888 -7.876406 23.376806 156.332755 74.624491 -22.868991 7.775381 -40.802064 -18.086631 -33.784355 19.813279 -1.644380 13.612751 8.685969 -16.248532 
0.290118 0.000000 -44.868287 0.000000 136.128665 0.000000 -1.742993 92.888824 -1.970930 92.267581 -0.275879 -179.494019 -178.832492 -15.792893 163.247972 -37.979557 0.369467 -2.216417 77.976366 -3.892244 -20.582463 21.454549 0.003091 0.000000 170.936763 1.483131 -171.658277 -22.061576 3.428192 17.037097 77.391249 -10.284008 7.350936 21.454557 -0.003098 -0.000016 9.110026 2.185464 -1.446240 8.159969 4.467181 -2.736852 7.841214 4.450725 -2.763813 -3.538301 1.953293 -15.303717 -10.657045 3.874876 -15.830098 176.041255 -77.817285 2.597047 1.081171 58.388473 36.719627 -67.162625 -15.062198 2.380754 9.036851 -7.685538 23.750864 155.742776 74.921642 -23.453686 8.121653 -40.902001 -18.911377 -33.976826 20.023067 -1.662398 12.502092 9.743658 -17.847022 
0.690297 0.000000 -44.521388 0.000000 136.146727 0.000000 -1.656022 92.849693 -1.961420 92.404353 -0.206675 -179.527716 -178.427627 -15.816604 163.863082 -39.257577 0.464354 -1.983808 77.774864 -4.060499 -20.408542 21.454546 0.003090 0.000000 170.838167 1.332900 -171.994217 -21.919959 3.466971 17.237210 77.234801 -10.443479 7.264005 21.454558 -0.003102 -0.000016 9.070319 2.139361 -1.467209 8.080448 4.375657 -2.783494 7.761749 4.358920 -2.809894 -3.762425 1.749103 -15.175596 -10.489036 3.902969 -15.750514 175.307979 -78.048013 3.338022 -0.007152 58.183613 35.339623 -67.228622 -15.074904 2.384003 8.641310 -7.583291 23.944627 154.630194 75.163304 -24.574102 8.383182 -41.083170 -19.275271 -34.301393 20.134651 -1.676948 11.744551 10.508468 -18.417125 
1.073591 0.000000 -44.121395 0.000000 136.191386 0.000000 -1.567121 92.793339 -1.935884 92.559808 -0.128354 -179.688312 -178.017748 -15.845198 164.508504 -40.476293 0.542125 -1.611761 77.559827 -4.358468 -20.331519 21.454543 0.003089 -0.000001 170.687064 1.246915 -172.153530 -21.899354 3.530717 17.269918 77.167497 -10.506332 7.109470 21.454559 -0.003111 -0.000018 9.040903 2.085974 -1.473723 8.022253 4.268797 -2.801266 7.703609 4.251952 -2.827009 -3.926218 1.559123 -14.979478 -10.303020 3.914353 -15.596614 174.629038 -78.217111 4.025069 -0.925416 58.044732 33.748172 -67.481716 -15.001427 2.389011 8.290514 -7.535447 24.062846 153.353731 75.346318 -25.864112 8.488402 -41.329481 -19.234953 -34.754271 20.170248 -1.689761 11.290857 11.095569 -18.302749 
1.441105 0.000000 -43.669067 0.000000 136.261148 0.000000 -1.479615 92.724541 -1.889569 92.729009 -0.030142 -179.906299 -177.627798 -15.905695 165.182606 -41.597832 0.621933 -1.090016 77.366078 -4.776929 -20.308256 21.454545 0.003090 -0.000001 170.493693 1.194004 -172.126231 -21.959222 3.586494 17.185348 77.103457 -10.500920 6.898124 21.454560 -0.003117 -0.000019 9.019393 2.027728 -1.473909 7.980242 4.151976 -2.806364 7.661653 4.135099 -2.831391 -4.063823 1.384156 -14.714505 -9.999262 3.926531 -15.364287 174.034039 -78.332107 4.627953 -1.773683 57.940711 31.952403 -67.897147 -14.864297 2.396386 8.049517 -7.506738 24.209795 152.296715 75.474618 -26.932991 8.363302 -41.622424 -18.844565 -35.331625 20.152067 -1.702342 11.074289 11.601265 -17.857029 
1.793944 0.000000 -43.165164 0.000000 136.354527 0.000000 -1.393546 92.647861 -1.818410 92.908299 0.097223 179.881838 -177.278805 -16.018709 165.879382 -42.583103 0.718417 -0.430406 77.219747 -5.291304 -20.294489 21.454553 0.003093 -0.000001 170.277351 1.147781 -171.918482 -22.053256 3.612498 17.033462 76.977365 -10.455106 6.647901 21.454560 -0.003117 -0.000019 9.002714 1.967373 -1.475310 7.947927 4.031135 -2.813817 7.629394 4.014215 -2.838112 -4.198924 1.231534 -14.372340 -9.497956 3.935450 -15.035798 173.565331 -78.395691 5.103555 -2.627528 57.839137 29.982310 -68.447206 -14.685232 2.406335 7.961040 -7.464476 24.444498 151.755317 75.556389 -27.479131 7.968704 -41.944138 -18.169521 -36.037157 20.104363 -1.716421 11.031290 12.088073 -17.415409 
2.133212 0.000000 -42.610443 0.000000 136.470039 0.000000 -1.295611 92.567001 -1.720978 93.099042 0.258083 179.715487 -176.974108 -16.181109 166.575815 -43.389179 0.829140 0.268978 77.112124 -5.816404 -20.239606 21.454560 0.003095 0.000000 170.092146 1.098905 -171.601318 -22.112553 3.633488 16.863220 76.806631 -10.393197 6.404379 21.454560 -0.003112 -0.000018 8.984989 1.908990 -1.483142 7.913282 3.914639 -2.833998 7.594803 3.897601 -2.857588 -4.313414 1.134125 -13.915640 -8.800000 3.853579 -14.540419 173.324000 -78.390888 5.349458 -3.480320 57.711046 27.943599 -69.092635 -14.482796 2.418520 7.977139 -7.388629 24.646505 151.632766 75.590622 -27.601696 7.410795 -42.291438 -17.327799 -36.904734 20.059622 -1.734846 11.139991 12.514191 -17.224935 
